<svg width="64" height="64" viewBox="64 384 64 64" xmlns="http://www.w3.org/2000/svg"><defs><mask id="mask13_7401_29176" style="mask-type:luminance" maskUnits="userSpaceOnUse" x="64" y="384" width="64" height="64">
<path d="M128 384H64V448H128V384Z" fill="white"/>
</mask></defs><g mask="url(#mask13_7401_29176)">
<path d="M64 384H68" stroke="black" stroke-width="4" stroke-miterlimit="10"/>
<path d="M64 416H68" stroke="black" stroke-width="4" stroke-miterlimit="10"/>
<path d="M64 448H68" stroke="black" stroke-width="4" stroke-miterlimit="10"/>
<path d="M64 400H68" stroke="black" stroke-width="4" stroke-miterlimit="10"/>
<path d="M64 432H68" stroke="black" stroke-width="4" stroke-miterlimit="10"/>
<path d="M64 392H68" stroke="black" stroke-width="4" stroke-miterlimit="10"/>
<path d="M64 424H68" stroke="black" stroke-width="4" stroke-miterlimit="10"/>
<path d="M64 408H68" stroke="black" stroke-width="4" stroke-miterlimit="10"/>
<path d="M64 440H68" stroke="black" stroke-width="4" stroke-miterlimit="10"/>
<path d="M68 388H72" stroke="black" stroke-width="4" stroke-miterlimit="10"/>
<path d="M68 420H72" stroke="black" stroke-width="4" stroke-miterlimit="10"/>
<path d="M68 404H72" stroke="black" stroke-width="4" stroke-miterlimit="10"/>
<path d="M68 436H72" stroke="black" stroke-width="4" stroke-miterlimit="10"/>
<path d="M68 396H72" stroke="black" stroke-width="4" stroke-miterlimit="10"/>
<path d="M68 428H72" stroke="black" stroke-width="4" stroke-miterlimit="10"/>
<path d="M68 412H72" stroke="black" stroke-width="4" stroke-miterlimit="10"/>
<path d="M68 444H72" stroke="black" stroke-width="4" stroke-miterlimit="10"/>
<path d="M72 392H76" stroke="black" stroke-width="4" stroke-miterlimit="10"/>
<path d="M72 424H76" stroke="black" stroke-width="4" stroke-miterlimit="10"/>
<path d="M72 408H76" stroke="black" stroke-width="4" stroke-miterlimit="10"/>
<path d="M72 440H76" stroke="black" stroke-width="4" stroke-miterlimit="10"/>
<path d="M72 400H76" stroke="black" stroke-width="4" stroke-miterlimit="10"/>
<path d="M72 432H76" stroke="black" stroke-width="4" stroke-miterlimit="10"/>
<path d="M72 384H76" stroke="black" stroke-width="4" stroke-miterlimit="10"/>
<path d="M72 416H76" stroke="black" stroke-width="4" stroke-miterlimit="10"/>
<path d="M72 448H76" stroke="black" stroke-width="4" stroke-miterlimit="10"/>
<path d="M76 396H80" stroke="black" stroke-width="4" stroke-miterlimit="10"/>
<path d="M76 428H80" stroke="black" stroke-width="4" stroke-miterlimit="10"/>
<path d="M76 412H80" stroke="black" stroke-width="4" stroke-miterlimit="10"/>
<path d="M76 444H80" stroke="black" stroke-width="4" stroke-miterlimit="10"/>
<path d="M76 404H80" stroke="black" stroke-width="4" stroke-miterlimit="10"/>
<path d="M76 436H80" stroke="black" stroke-width="4" stroke-miterlimit="10"/>
<path d="M76 388H80" stroke="black" stroke-width="4" stroke-miterlimit="10"/>
<path d="M76 420H80" stroke="black" stroke-width="4" stroke-miterlimit="10"/>
<path d="M80 400H84" stroke="black" stroke-width="4" stroke-miterlimit="10"/>
<path d="M80 432H84" stroke="black" stroke-width="4" stroke-miterlimit="10"/>
<path d="M80 384H84" stroke="black" stroke-width="4" stroke-miterlimit="10"/>
<path d="M80 416H84" stroke="black" stroke-width="4" stroke-miterlimit="10"/>
<path d="M80 448H84" stroke="black" stroke-width="4" stroke-miterlimit="10"/>
<path d="M80 408H84" stroke="black" stroke-width="4" stroke-miterlimit="10"/>
<path d="M80 440H84" stroke="black" stroke-width="4" stroke-miterlimit="10"/>
<path d="M80 392H84" stroke="black" stroke-width="4" stroke-miterlimit="10"/>
<path d="M80 424H84" stroke="black" stroke-width="4" stroke-miterlimit="10"/>
<path d="M84 404H88" stroke="black" stroke-width="4" stroke-miterlimit="10"/>
<path d="M84 436H88" stroke="black" stroke-width="4" stroke-miterlimit="10"/>
<path d="M84 388H88" stroke="black" stroke-width="4" stroke-miterlimit="10"/>
<path d="M84 420H88" stroke="black" stroke-width="4" stroke-miterlimit="10"/>
<path d="M84 412H88" stroke="black" stroke-width="4" stroke-miterlimit="10"/>
<path d="M84 444H88" stroke="black" stroke-width="4" stroke-miterlimit="10"/>
<path d="M84 396H88" stroke="black" stroke-width="4" stroke-miterlimit="10"/>
<path d="M84 428H88" stroke="black" stroke-width="4" stroke-miterlimit="10"/>
<path d="M88 408H92" stroke="black" stroke-width="4" stroke-miterlimit="10"/>
<path d="M88 440H92" stroke="black" stroke-width="4" stroke-miterlimit="10"/>
<path d="M88 392H92" stroke="black" stroke-width="4" stroke-miterlimit="10"/>
<path d="M88 424H92" stroke="black" stroke-width="4" stroke-miterlimit="10"/>
<path d="M88 384H92" stroke="black" stroke-width="4" stroke-miterlimit="10"/>
<path d="M88 416H92" stroke="black" stroke-width="4" stroke-miterlimit="10"/>
<path d="M88 448H92" stroke="black" stroke-width="4" stroke-miterlimit="10"/>
<path d="M88 400H92" stroke="black" stroke-width="4" stroke-miterlimit="10"/>
<path d="M88 432H92" stroke="black" stroke-width="4" stroke-miterlimit="10"/>
<path d="M92 412H96" stroke="black" stroke-width="4" stroke-miterlimit="10"/>
<path d="M92 444H96" stroke="black" stroke-width="4" stroke-miterlimit="10"/>
<path d="M92 396H96" stroke="black" stroke-width="4" stroke-miterlimit="10"/>
<path d="M92 428H96" stroke="black" stroke-width="4" stroke-miterlimit="10"/>
<path d="M92 388H96" stroke="black" stroke-width="4" stroke-miterlimit="10"/>
<path d="M92 420H96" stroke="black" stroke-width="4" stroke-miterlimit="10"/>
<path d="M92 404H96" stroke="black" stroke-width="4" stroke-miterlimit="10"/>
<path d="M92 436H96" stroke="black" stroke-width="4" stroke-miterlimit="10"/>
<path d="M96 384H100" stroke="black" stroke-width="4" stroke-miterlimit="10"/>
<path d="M96 416H100" stroke="black" stroke-width="4" stroke-miterlimit="10"/>
<path d="M96 448H100" stroke="black" stroke-width="4" stroke-miterlimit="10"/>
<path d="M96 400H100" stroke="black" stroke-width="4" stroke-miterlimit="10"/>
<path d="M96 432H100" stroke="black" stroke-width="4" stroke-miterlimit="10"/>
<path d="M96 392H100" stroke="black" stroke-width="4" stroke-miterlimit="10"/>
<path d="M96 424H100" stroke="black" stroke-width="4" stroke-miterlimit="10"/>
<path d="M96 408H100" stroke="black" stroke-width="4" stroke-miterlimit="10"/>
<path d="M96 440H100" stroke="black" stroke-width="4" stroke-miterlimit="10"/>
<path d="M100 388H104" stroke="black" stroke-width="4" stroke-miterlimit="10"/>
<path d="M100 420H104" stroke="black" stroke-width="4" stroke-miterlimit="10"/>
<path d="M100 404H104" stroke="black" stroke-width="4" stroke-miterlimit="10"/>
<path d="M100 436H104" stroke="black" stroke-width="4" stroke-miterlimit="10"/>
<path d="M100 396H104" stroke="black" stroke-width="4" stroke-miterlimit="10"/>
<path d="M100 428H104" stroke="black" stroke-width="4" stroke-miterlimit="10"/>
<path d="M100 412H104" stroke="black" stroke-width="4" stroke-miterlimit="10"/>
<path d="M100 444H104" stroke="black" stroke-width="4" stroke-miterlimit="10"/>
<path d="M104 384H108" stroke="black" stroke-width="4" stroke-miterlimit="10"/>
<path d="M104 416H108" stroke="black" stroke-width="4" stroke-miterlimit="10"/>
<path d="M104 448H108" stroke="black" stroke-width="4" stroke-miterlimit="10"/>
<path d="M104 400H108" stroke="black" stroke-width="4" stroke-miterlimit="10"/>
<path d="M104 432H108" stroke="black" stroke-width="4" stroke-miterlimit="10"/>
<path d="M104 392H108" stroke="black" stroke-width="4" stroke-miterlimit="10"/>
<path d="M104 424H108" stroke="black" stroke-width="4" stroke-miterlimit="10"/>
<path d="M104 408H108" stroke="black" stroke-width="4" stroke-miterlimit="10"/>
<path d="M104 440H108" stroke="black" stroke-width="4" stroke-miterlimit="10"/>
<path d="M108 388H112" stroke="black" stroke-width="4" stroke-miterlimit="10"/>
<path d="M108 420H112" stroke="black" stroke-width="4" stroke-miterlimit="10"/>
<path d="M108 404H112" stroke="black" stroke-width="4" stroke-miterlimit="10"/>
<path d="M108 436H112" stroke="black" stroke-width="4" stroke-miterlimit="10"/>
<path d="M108 396H112" stroke="black" stroke-width="4" stroke-miterlimit="10"/>
<path d="M108 428H112" stroke="black" stroke-width="4" stroke-miterlimit="10"/>
<path d="M108 412H112" stroke="black" stroke-width="4" stroke-miterlimit="10"/>
<path d="M108 444H112" stroke="black" stroke-width="4" stroke-miterlimit="10"/>
<path d="M112 384H116" stroke="black" stroke-width="4" stroke-miterlimit="10"/>
<path d="M112 416H116" stroke="black" stroke-width="4" stroke-miterlimit="10"/>
<path d="M112 448H116" stroke="black" stroke-width="4" stroke-miterlimit="10"/>
<path d="M112 400H116" stroke="black" stroke-width="4" stroke-miterlimit="10"/>
<path d="M112 432H116" stroke="black" stroke-width="4" stroke-miterlimit="10"/>
<path d="M112 392H116" stroke="black" stroke-width="4" stroke-miterlimit="10"/>
<path d="M112 424H116" stroke="black" stroke-width="4" stroke-miterlimit="10"/>
<path d="M112 408H116" stroke="black" stroke-width="4" stroke-miterlimit="10"/>
<path d="M112 440H116" stroke="black" stroke-width="4" stroke-miterlimit="10"/>
<path d="M116 388H120" stroke="black" stroke-width="4" stroke-miterlimit="10"/>
<path d="M116 420H120" stroke="black" stroke-width="4" stroke-miterlimit="10"/>
<path d="M116 404H120" stroke="black" stroke-width="4" stroke-miterlimit="10"/>
<path d="M116 436H120" stroke="black" stroke-width="4" stroke-miterlimit="10"/>
<path d="M116 396H120" stroke="black" stroke-width="4" stroke-miterlimit="10"/>
<path d="M116 428H120" stroke="black" stroke-width="4" stroke-miterlimit="10"/>
<path d="M116 412H120" stroke="black" stroke-width="4" stroke-miterlimit="10"/>
<path d="M116 444H120" stroke="black" stroke-width="4" stroke-miterlimit="10"/>
<path d="M120 384H124" stroke="black" stroke-width="4" stroke-miterlimit="10"/>
<path d="M120 416H124" stroke="black" stroke-width="4" stroke-miterlimit="10"/>
<path d="M120 448H124" stroke="black" stroke-width="4" stroke-miterlimit="10"/>
<path d="M120 400H124" stroke="black" stroke-width="4" stroke-miterlimit="10"/>
<path d="M120 432H124" stroke="black" stroke-width="4" stroke-miterlimit="10"/>
<path d="M120 392H124" stroke="black" stroke-width="4" stroke-miterlimit="10"/>
<path d="M120 424H124" stroke="black" stroke-width="4" stroke-miterlimit="10"/>
<path d="M120 408H124" stroke="black" stroke-width="4" stroke-miterlimit="10"/>
<path d="M120 440H124" stroke="black" stroke-width="4" stroke-miterlimit="10"/>
<path d="M124 388H128" stroke="black" stroke-width="4" stroke-miterlimit="10"/>
<path d="M124 420H128" stroke="black" stroke-width="4" stroke-miterlimit="10"/>
<path d="M124 404H128" stroke="black" stroke-width="4" stroke-miterlimit="10"/>
<path d="M124 436H128" stroke="black" stroke-width="4" stroke-miterlimit="10"/>
<path d="M124 396H128" stroke="black" stroke-width="4" stroke-miterlimit="10"/>
<path d="M124 428H128" stroke="black" stroke-width="4" stroke-miterlimit="10"/>
<path d="M124 412H128" stroke="black" stroke-width="4" stroke-miterlimit="10"/>
<path d="M124 444H128" stroke="black" stroke-width="4" stroke-miterlimit="10"/>
</g></svg>
