<svg width="64" height="64" viewBox="128 320 64 64" xmlns="http://www.w3.org/2000/svg"><defs><mask id="mask11_7401_29176" style="mask-type:alpha" maskUnits="userSpaceOnUse" x="128" y="320" width="64" height="64">
<path d="M192 320H128V384H192V320Z" fill="black"/>
</mask></defs><g mask="url(#mask11_7401_29176)">
<path d="M128 321C128.552 321 129 320.552 129 320C129 319.448 128.552 319 128 319C127.448 319 127 319.448 127 320C127 320.552 127.448 321 128 321Z" fill="black"/>
<path d="M132 321C132.552 321 133 320.552 133 320C133 319.448 132.552 319 132 319C131.448 319 131 319.448 131 320C131 320.552 131.448 321 132 321Z" fill="black"/>
<path d="M136 321C136.552 321 137 320.552 137 320C137 319.448 136.552 319 136 319C135.448 319 135 319.448 135 320C135 320.552 135.448 321 136 321Z" fill="black"/>
<path d="M140 321C140.552 321 141 320.552 141 320C141 319.448 140.552 319 140 319C139.448 319 139 319.448 139 320C139 320.552 139.448 321 140 321Z" fill="black"/>
<path d="M144 321C144.552 321 145 320.552 145 320C145 319.448 144.552 319 144 319C143.448 319 143 319.448 143 320C143 320.552 143.448 321 144 321Z" fill="black"/>
<path d="M148 321C148.552 321 149 320.552 149 320C149 319.448 148.552 319 148 319C147.448 319 147 319.448 147 320C147 320.552 147.448 321 148 321Z" fill="black"/>
<path d="M152 321C152.552 321 153 320.552 153 320C153 319.448 152.552 319 152 319C151.448 319 151 319.448 151 320C151 320.552 151.448 321 152 321Z" fill="black"/>
<path d="M156 321C156.552 321 157 320.552 157 320C157 319.448 156.552 319 156 319C155.448 319 155 319.448 155 320C155 320.552 155.448 321 156 321Z" fill="black"/>
<path d="M160 321C160.552 321 161 320.552 161 320C161 319.448 160.552 319 160 319C159.448 319 159 319.448 159 320C159 320.552 159.448 321 160 321Z" fill="black"/>
<path d="M164 321C164.552 321 165 320.552 165 320C165 319.448 164.552 319 164 319C163.448 319 163 319.448 163 320C163 320.552 163.448 321 164 321Z" fill="black"/>
<path d="M168 321C168.552 321 169 320.552 169 320C169 319.448 168.552 319 168 319C167.448 319 167 319.448 167 320C167 320.552 167.448 321 168 321Z" fill="black"/>
<path d="M172 321C172.552 321 173 320.552 173 320C173 319.448 172.552 319 172 319C171.448 319 171 319.448 171 320C171 320.552 171.448 321 172 321Z" fill="black"/>
<path d="M176 321C176.552 321 177 320.552 177 320C177 319.448 176.552 319 176 319C175.448 319 175 319.448 175 320C175 320.552 175.448 321 176 321Z" fill="black"/>
<path d="M180 321C180.552 321 181 320.552 181 320C181 319.448 180.552 319 180 319C179.448 319 179 319.448 179 320C179 320.552 179.448 321 180 321Z" fill="black"/>
<path d="M184 321C184.552 321 185 320.552 185 320C185 319.448 184.552 319 184 319C183.448 319 183 319.448 183 320C183 320.552 183.448 321 184 321Z" fill="black"/>
<path d="M188 321C188.552 321 189 320.552 189 320C189 319.448 188.552 319 188 319C187.448 319 187 319.448 187 320C187 320.552 187.448 321 188 321Z" fill="black"/>
<path d="M192 321C192.552 321 193 320.552 193 320C193 319.448 192.552 319 192 319C191.448 319 191 319.448 191 320C191 320.552 191.448 321 192 321Z" fill="black"/>
<path d="M128 325C128.552 325 129 324.552 129 324C129 323.448 128.552 323 128 323C127.448 323 127 323.448 127 324C127 324.552 127.448 325 128 325Z" fill="black"/>
<path d="M132 325C132.552 325 133 324.552 133 324C133 323.448 132.552 323 132 323C131.448 323 131 323.448 131 324C131 324.552 131.448 325 132 325Z" fill="black"/>
<path d="M136 325C136.552 325 137 324.552 137 324C137 323.448 136.552 323 136 323C135.448 323 135 323.448 135 324C135 324.552 135.448 325 136 325Z" fill="black"/>
<path d="M140 325C140.552 325 141 324.552 141 324C141 323.448 140.552 323 140 323C139.448 323 139 323.448 139 324C139 324.552 139.448 325 140 325Z" fill="black"/>
<path d="M144 325C144.552 325 145 324.552 145 324C145 323.448 144.552 323 144 323C143.448 323 143 323.448 143 324C143 324.552 143.448 325 144 325Z" fill="black"/>
<path d="M148 325C148.552 325 149 324.552 149 324C149 323.448 148.552 323 148 323C147.448 323 147 323.448 147 324C147 324.552 147.448 325 148 325Z" fill="black"/>
<path d="M152 325C152.552 325 153 324.552 153 324C153 323.448 152.552 323 152 323C151.448 323 151 323.448 151 324C151 324.552 151.448 325 152 325Z" fill="black"/>
<path d="M156 325C156.552 325 157 324.552 157 324C157 323.448 156.552 323 156 323C155.448 323 155 323.448 155 324C155 324.552 155.448 325 156 325Z" fill="black"/>
<path d="M160 325C160.552 325 161 324.552 161 324C161 323.448 160.552 323 160 323C159.448 323 159 323.448 159 324C159 324.552 159.448 325 160 325Z" fill="black"/>
<path d="M164 325C164.552 325 165 324.552 165 324C165 323.448 164.552 323 164 323C163.448 323 163 323.448 163 324C163 324.552 163.448 325 164 325Z" fill="black"/>
<path d="M168 325C168.552 325 169 324.552 169 324C169 323.448 168.552 323 168 323C167.448 323 167 323.448 167 324C167 324.552 167.448 325 168 325Z" fill="black"/>
<path d="M172 325C172.552 325 173 324.552 173 324C173 323.448 172.552 323 172 323C171.448 323 171 323.448 171 324C171 324.552 171.448 325 172 325Z" fill="black"/>
<path d="M176 325C176.552 325 177 324.552 177 324C177 323.448 176.552 323 176 323C175.448 323 175 323.448 175 324C175 324.552 175.448 325 176 325Z" fill="black"/>
<path d="M180 325C180.552 325 181 324.552 181 324C181 323.448 180.552 323 180 323C179.448 323 179 323.448 179 324C179 324.552 179.448 325 180 325Z" fill="black"/>
<path d="M184 325C184.552 325 185 324.552 185 324C185 323.448 184.552 323 184 323C183.448 323 183 323.448 183 324C183 324.552 183.448 325 184 325Z" fill="black"/>
<path d="M188 325C188.552 325 189 324.552 189 324C189 323.448 188.552 323 188 323C187.448 323 187 323.448 187 324C187 324.552 187.448 325 188 325Z" fill="black"/>
<path d="M192 325C192.552 325 193 324.552 193 324C193 323.448 192.552 323 192 323C191.448 323 191 323.448 191 324C191 324.552 191.448 325 192 325Z" fill="black"/>
<path d="M128 329C128.552 329 129 328.552 129 328C129 327.448 128.552 327 128 327C127.448 327 127 327.448 127 328C127 328.552 127.448 329 128 329Z" fill="black"/>
<path d="M132 329C132.552 329 133 328.552 133 328C133 327.448 132.552 327 132 327C131.448 327 131 327.448 131 328C131 328.552 131.448 329 132 329Z" fill="black"/>
<path d="M136 329C136.552 329 137 328.552 137 328C137 327.448 136.552 327 136 327C135.448 327 135 327.448 135 328C135 328.552 135.448 329 136 329Z" fill="black"/>
<path d="M140 329C140.552 329 141 328.552 141 328C141 327.448 140.552 327 140 327C139.448 327 139 327.448 139 328C139 328.552 139.448 329 140 329Z" fill="black"/>
<path d="M144 329C144.552 329 145 328.552 145 328C145 327.448 144.552 327 144 327C143.448 327 143 327.448 143 328C143 328.552 143.448 329 144 329Z" fill="black"/>
<path d="M148 329C148.552 329 149 328.552 149 328C149 327.448 148.552 327 148 327C147.448 327 147 327.448 147 328C147 328.552 147.448 329 148 329Z" fill="black"/>
<path d="M152 329C152.552 329 153 328.552 153 328C153 327.448 152.552 327 152 327C151.448 327 151 327.448 151 328C151 328.552 151.448 329 152 329Z" fill="black"/>
<path d="M156 329C156.552 329 157 328.552 157 328C157 327.448 156.552 327 156 327C155.448 327 155 327.448 155 328C155 328.552 155.448 329 156 329Z" fill="black"/>
<path d="M160 329C160.552 329 161 328.552 161 328C161 327.448 160.552 327 160 327C159.448 327 159 327.448 159 328C159 328.552 159.448 329 160 329Z" fill="black"/>
<path d="M164 329C164.552 329 165 328.552 165 328C165 327.448 164.552 327 164 327C163.448 327 163 327.448 163 328C163 328.552 163.448 329 164 329Z" fill="black"/>
<path d="M168 329C168.552 329 169 328.552 169 328C169 327.448 168.552 327 168 327C167.448 327 167 327.448 167 328C167 328.552 167.448 329 168 329Z" fill="black"/>
<path d="M172 329C172.552 329 173 328.552 173 328C173 327.448 172.552 327 172 327C171.448 327 171 327.448 171 328C171 328.552 171.448 329 172 329Z" fill="black"/>
<path d="M176 329C176.552 329 177 328.552 177 328C177 327.448 176.552 327 176 327C175.448 327 175 327.448 175 328C175 328.552 175.448 329 176 329Z" fill="black"/>
<path d="M180 329C180.552 329 181 328.552 181 328C181 327.448 180.552 327 180 327C179.448 327 179 327.448 179 328C179 328.552 179.448 329 180 329Z" fill="black"/>
<path d="M184 329C184.552 329 185 328.552 185 328C185 327.448 184.552 327 184 327C183.448 327 183 327.448 183 328C183 328.552 183.448 329 184 329Z" fill="black"/>
<path d="M188 329C188.552 329 189 328.552 189 328C189 327.448 188.552 327 188 327C187.448 327 187 327.448 187 328C187 328.552 187.448 329 188 329Z" fill="black"/>
<path d="M192 329C192.552 329 193 328.552 193 328C193 327.448 192.552 327 192 327C191.448 327 191 327.448 191 328C191 328.552 191.448 329 192 329Z" fill="black"/>
<path d="M128 333C128.552 333 129 332.552 129 332C129 331.448 128.552 331 128 331C127.448 331 127 331.448 127 332C127 332.552 127.448 333 128 333Z" fill="black"/>
<path d="M132 333C132.552 333 133 332.552 133 332C133 331.448 132.552 331 132 331C131.448 331 131 331.448 131 332C131 332.552 131.448 333 132 333Z" fill="black"/>
<path d="M136 333C136.552 333 137 332.552 137 332C137 331.448 136.552 331 136 331C135.448 331 135 331.448 135 332C135 332.552 135.448 333 136 333Z" fill="black"/>
<path d="M140 333C140.552 333 141 332.552 141 332C141 331.448 140.552 331 140 331C139.448 331 139 331.448 139 332C139 332.552 139.448 333 140 333Z" fill="black"/>
<path d="M144 333C144.552 333 145 332.552 145 332C145 331.448 144.552 331 144 331C143.448 331 143 331.448 143 332C143 332.552 143.448 333 144 333Z" fill="black"/>
<path d="M148 333C148.552 333 149 332.552 149 332C149 331.448 148.552 331 148 331C147.448 331 147 331.448 147 332C147 332.552 147.448 333 148 333Z" fill="black"/>
<path d="M152 333C152.552 333 153 332.552 153 332C153 331.448 152.552 331 152 331C151.448 331 151 331.448 151 332C151 332.552 151.448 333 152 333Z" fill="black"/>
<path d="M156 333C156.552 333 157 332.552 157 332C157 331.448 156.552 331 156 331C155.448 331 155 331.448 155 332C155 332.552 155.448 333 156 333Z" fill="black"/>
<path d="M160 333C160.552 333 161 332.552 161 332C161 331.448 160.552 331 160 331C159.448 331 159 331.448 159 332C159 332.552 159.448 333 160 333Z" fill="black"/>
<path d="M164 333C164.552 333 165 332.552 165 332C165 331.448 164.552 331 164 331C163.448 331 163 331.448 163 332C163 332.552 163.448 333 164 333Z" fill="black"/>
<path d="M168 333C168.552 333 169 332.552 169 332C169 331.448 168.552 331 168 331C167.448 331 167 331.448 167 332C167 332.552 167.448 333 168 333Z" fill="black"/>
<path d="M172 333C172.552 333 173 332.552 173 332C173 331.448 172.552 331 172 331C171.448 331 171 331.448 171 332C171 332.552 171.448 333 172 333Z" fill="black"/>
<path d="M176 333C176.552 333 177 332.552 177 332C177 331.448 176.552 331 176 331C175.448 331 175 331.448 175 332C175 332.552 175.448 333 176 333Z" fill="black"/>
<path d="M180 333C180.552 333 181 332.552 181 332C181 331.448 180.552 331 180 331C179.448 331 179 331.448 179 332C179 332.552 179.448 333 180 333Z" fill="black"/>
<path d="M184 333C184.552 333 185 332.552 185 332C185 331.448 184.552 331 184 331C183.448 331 183 331.448 183 332C183 332.552 183.448 333 184 333Z" fill="black"/>
<path d="M188 333C188.552 333 189 332.552 189 332C189 331.448 188.552 331 188 331C187.448 331 187 331.448 187 332C187 332.552 187.448 333 188 333Z" fill="black"/>
<path d="M192 333C192.552 333 193 332.552 193 332C193 331.448 192.552 331 192 331C191.448 331 191 331.448 191 332C191 332.552 191.448 333 192 333Z" fill="black"/>
<path d="M128 337C128.552 337 129 336.552 129 336C129 335.448 128.552 335 128 335C127.448 335 127 335.448 127 336C127 336.552 127.448 337 128 337Z" fill="black"/>
<path d="M132 337C132.552 337 133 336.552 133 336C133 335.448 132.552 335 132 335C131.448 335 131 335.448 131 336C131 336.552 131.448 337 132 337Z" fill="black"/>
<path d="M136 337C136.552 337 137 336.552 137 336C137 335.448 136.552 335 136 335C135.448 335 135 335.448 135 336C135 336.552 135.448 337 136 337Z" fill="black"/>
<path d="M140 337C140.552 337 141 336.552 141 336C141 335.448 140.552 335 140 335C139.448 335 139 335.448 139 336C139 336.552 139.448 337 140 337Z" fill="black"/>
<path d="M144 337C144.552 337 145 336.552 145 336C145 335.448 144.552 335 144 335C143.448 335 143 335.448 143 336C143 336.552 143.448 337 144 337Z" fill="black"/>
<path d="M148 337C148.552 337 149 336.552 149 336C149 335.448 148.552 335 148 335C147.448 335 147 335.448 147 336C147 336.552 147.448 337 148 337Z" fill="black"/>
<path d="M152 337C152.552 337 153 336.552 153 336C153 335.448 152.552 335 152 335C151.448 335 151 335.448 151 336C151 336.552 151.448 337 152 337Z" fill="black"/>
<path d="M156 337C156.552 337 157 336.552 157 336C157 335.448 156.552 335 156 335C155.448 335 155 335.448 155 336C155 336.552 155.448 337 156 337Z" fill="black"/>
<path d="M160 337C160.552 337 161 336.552 161 336C161 335.448 160.552 335 160 335C159.448 335 159 335.448 159 336C159 336.552 159.448 337 160 337Z" fill="black"/>
<path d="M164 337C164.552 337 165 336.552 165 336C165 335.448 164.552 335 164 335C163.448 335 163 335.448 163 336C163 336.552 163.448 337 164 337Z" fill="black"/>
<path d="M168 337C168.552 337 169 336.552 169 336C169 335.448 168.552 335 168 335C167.448 335 167 335.448 167 336C167 336.552 167.448 337 168 337Z" fill="black"/>
<path d="M172 337C172.552 337 173 336.552 173 336C173 335.448 172.552 335 172 335C171.448 335 171 335.448 171 336C171 336.552 171.448 337 172 337Z" fill="black"/>
<path d="M176 337C176.552 337 177 336.552 177 336C177 335.448 176.552 335 176 335C175.448 335 175 335.448 175 336C175 336.552 175.448 337 176 337Z" fill="black"/>
<path d="M180 337C180.552 337 181 336.552 181 336C181 335.448 180.552 335 180 335C179.448 335 179 335.448 179 336C179 336.552 179.448 337 180 337Z" fill="black"/>
<path d="M184 337C184.552 337 185 336.552 185 336C185 335.448 184.552 335 184 335C183.448 335 183 335.448 183 336C183 336.552 183.448 337 184 337Z" fill="black"/>
<path d="M188 337C188.552 337 189 336.552 189 336C189 335.448 188.552 335 188 335C187.448 335 187 335.448 187 336C187 336.552 187.448 337 188 337Z" fill="black"/>
<path d="M192 337C192.552 337 193 336.552 193 336C193 335.448 192.552 335 192 335C191.448 335 191 335.448 191 336C191 336.552 191.448 337 192 337Z" fill="black"/>
<path d="M128 341C128.552 341 129 340.552 129 340C129 339.448 128.552 339 128 339C127.448 339 127 339.448 127 340C127 340.552 127.448 341 128 341Z" fill="black"/>
<path d="M132 341C132.552 341 133 340.552 133 340C133 339.448 132.552 339 132 339C131.448 339 131 339.448 131 340C131 340.552 131.448 341 132 341Z" fill="black"/>
<path d="M136 341C136.552 341 137 340.552 137 340C137 339.448 136.552 339 136 339C135.448 339 135 339.448 135 340C135 340.552 135.448 341 136 341Z" fill="black"/>
<path d="M140 341C140.552 341 141 340.552 141 340C141 339.448 140.552 339 140 339C139.448 339 139 339.448 139 340C139 340.552 139.448 341 140 341Z" fill="black"/>
<path d="M144 341C144.552 341 145 340.552 145 340C145 339.448 144.552 339 144 339C143.448 339 143 339.448 143 340C143 340.552 143.448 341 144 341Z" fill="black"/>
<path d="M148 341C148.552 341 149 340.552 149 340C149 339.448 148.552 339 148 339C147.448 339 147 339.448 147 340C147 340.552 147.448 341 148 341Z" fill="black"/>
<path d="M152 341C152.552 341 153 340.552 153 340C153 339.448 152.552 339 152 339C151.448 339 151 339.448 151 340C151 340.552 151.448 341 152 341Z" fill="black"/>
<path d="M156 341C156.552 341 157 340.552 157 340C157 339.448 156.552 339 156 339C155.448 339 155 339.448 155 340C155 340.552 155.448 341 156 341Z" fill="black"/>
<path d="M160 341C160.552 341 161 340.552 161 340C161 339.448 160.552 339 160 339C159.448 339 159 339.448 159 340C159 340.552 159.448 341 160 341Z" fill="black"/>
<path d="M164 341C164.552 341 165 340.552 165 340C165 339.448 164.552 339 164 339C163.448 339 163 339.448 163 340C163 340.552 163.448 341 164 341Z" fill="black"/>
<path d="M168 341C168.552 341 169 340.552 169 340C169 339.448 168.552 339 168 339C167.448 339 167 339.448 167 340C167 340.552 167.448 341 168 341Z" fill="black"/>
<path d="M172 341C172.552 341 173 340.552 173 340C173 339.448 172.552 339 172 339C171.448 339 171 339.448 171 340C171 340.552 171.448 341 172 341Z" fill="black"/>
<path d="M176 341C176.552 341 177 340.552 177 340C177 339.448 176.552 339 176 339C175.448 339 175 339.448 175 340C175 340.552 175.448 341 176 341Z" fill="black"/>
<path d="M180 341C180.552 341 181 340.552 181 340C181 339.448 180.552 339 180 339C179.448 339 179 339.448 179 340C179 340.552 179.448 341 180 341Z" fill="black"/>
<path d="M184 341C184.552 341 185 340.552 185 340C185 339.448 184.552 339 184 339C183.448 339 183 339.448 183 340C183 340.552 183.448 341 184 341Z" fill="black"/>
<path d="M188 341C188.552 341 189 340.552 189 340C189 339.448 188.552 339 188 339C187.448 339 187 339.448 187 340C187 340.552 187.448 341 188 341Z" fill="black"/>
<path d="M192 341C192.552 341 193 340.552 193 340C193 339.448 192.552 339 192 339C191.448 339 191 339.448 191 340C191 340.552 191.448 341 192 341Z" fill="black"/>
<path d="M128 345C128.552 345 129 344.552 129 344C129 343.448 128.552 343 128 343C127.448 343 127 343.448 127 344C127 344.552 127.448 345 128 345Z" fill="black"/>
<path d="M132 345C132.552 345 133 344.552 133 344C133 343.448 132.552 343 132 343C131.448 343 131 343.448 131 344C131 344.552 131.448 345 132 345Z" fill="black"/>
<path d="M136 345C136.552 345 137 344.552 137 344C137 343.448 136.552 343 136 343C135.448 343 135 343.448 135 344C135 344.552 135.448 345 136 345Z" fill="black"/>
<path d="M140 345C140.552 345 141 344.552 141 344C141 343.448 140.552 343 140 343C139.448 343 139 343.448 139 344C139 344.552 139.448 345 140 345Z" fill="black"/>
<path d="M144 345C144.552 345 145 344.552 145 344C145 343.448 144.552 343 144 343C143.448 343 143 343.448 143 344C143 344.552 143.448 345 144 345Z" fill="black"/>
<path d="M148 345C148.552 345 149 344.552 149 344C149 343.448 148.552 343 148 343C147.448 343 147 343.448 147 344C147 344.552 147.448 345 148 345Z" fill="black"/>
<path d="M152 345C152.552 345 153 344.552 153 344C153 343.448 152.552 343 152 343C151.448 343 151 343.448 151 344C151 344.552 151.448 345 152 345Z" fill="black"/>
<path d="M156 345C156.552 345 157 344.552 157 344C157 343.448 156.552 343 156 343C155.448 343 155 343.448 155 344C155 344.552 155.448 345 156 345Z" fill="black"/>
<path d="M160 345C160.552 345 161 344.552 161 344C161 343.448 160.552 343 160 343C159.448 343 159 343.448 159 344C159 344.552 159.448 345 160 345Z" fill="black"/>
<path d="M164 345C164.552 345 165 344.552 165 344C165 343.448 164.552 343 164 343C163.448 343 163 343.448 163 344C163 344.552 163.448 345 164 345Z" fill="black"/>
<path d="M168 345C168.552 345 169 344.552 169 344C169 343.448 168.552 343 168 343C167.448 343 167 343.448 167 344C167 344.552 167.448 345 168 345Z" fill="black"/>
<path d="M172 345C172.552 345 173 344.552 173 344C173 343.448 172.552 343 172 343C171.448 343 171 343.448 171 344C171 344.552 171.448 345 172 345Z" fill="black"/>
<path d="M176 345C176.552 345 177 344.552 177 344C177 343.448 176.552 343 176 343C175.448 343 175 343.448 175 344C175 344.552 175.448 345 176 345Z" fill="black"/>
<path d="M180 345C180.552 345 181 344.552 181 344C181 343.448 180.552 343 180 343C179.448 343 179 343.448 179 344C179 344.552 179.448 345 180 345Z" fill="black"/>
<path d="M184 345C184.552 345 185 344.552 185 344C185 343.448 184.552 343 184 343C183.448 343 183 343.448 183 344C183 344.552 183.448 345 184 345Z" fill="black"/>
<path d="M188 345C188.552 345 189 344.552 189 344C189 343.448 188.552 343 188 343C187.448 343 187 343.448 187 344C187 344.552 187.448 345 188 345Z" fill="black"/>
<path d="M192 345C192.552 345 193 344.552 193 344C193 343.448 192.552 343 192 343C191.448 343 191 343.448 191 344C191 344.552 191.448 345 192 345Z" fill="black"/>
<path d="M128 349C128.552 349 129 348.552 129 348C129 347.448 128.552 347 128 347C127.448 347 127 347.448 127 348C127 348.552 127.448 349 128 349Z" fill="black"/>
<path d="M132 349C132.552 349 133 348.552 133 348C133 347.448 132.552 347 132 347C131.448 347 131 347.448 131 348C131 348.552 131.448 349 132 349Z" fill="black"/>
<path d="M136 349C136.552 349 137 348.552 137 348C137 347.448 136.552 347 136 347C135.448 347 135 347.448 135 348C135 348.552 135.448 349 136 349Z" fill="black"/>
<path d="M140 349C140.552 349 141 348.552 141 348C141 347.448 140.552 347 140 347C139.448 347 139 347.448 139 348C139 348.552 139.448 349 140 349Z" fill="black"/>
<path d="M144 349C144.552 349 145 348.552 145 348C145 347.448 144.552 347 144 347C143.448 347 143 347.448 143 348C143 348.552 143.448 349 144 349Z" fill="black"/>
<path d="M148 349C148.552 349 149 348.552 149 348C149 347.448 148.552 347 148 347C147.448 347 147 347.448 147 348C147 348.552 147.448 349 148 349Z" fill="black"/>
<path d="M152 349C152.552 349 153 348.552 153 348C153 347.448 152.552 347 152 347C151.448 347 151 347.448 151 348C151 348.552 151.448 349 152 349Z" fill="black"/>
<path d="M156 349C156.552 349 157 348.552 157 348C157 347.448 156.552 347 156 347C155.448 347 155 347.448 155 348C155 348.552 155.448 349 156 349Z" fill="black"/>
<path d="M160 349C160.552 349 161 348.552 161 348C161 347.448 160.552 347 160 347C159.448 347 159 347.448 159 348C159 348.552 159.448 349 160 349Z" fill="black"/>
<path d="M164 349C164.552 349 165 348.552 165 348C165 347.448 164.552 347 164 347C163.448 347 163 347.448 163 348C163 348.552 163.448 349 164 349Z" fill="black"/>
<path d="M168 349C168.552 349 169 348.552 169 348C169 347.448 168.552 347 168 347C167.448 347 167 347.448 167 348C167 348.552 167.448 349 168 349Z" fill="black"/>
<path d="M172 349C172.552 349 173 348.552 173 348C173 347.448 172.552 347 172 347C171.448 347 171 347.448 171 348C171 348.552 171.448 349 172 349Z" fill="black"/>
<path d="M176 349C176.552 349 177 348.552 177 348C177 347.448 176.552 347 176 347C175.448 347 175 347.448 175 348C175 348.552 175.448 349 176 349Z" fill="black"/>
<path d="M180 349C180.552 349 181 348.552 181 348C181 347.448 180.552 347 180 347C179.448 347 179 347.448 179 348C179 348.552 179.448 349 180 349Z" fill="black"/>
<path d="M184 349C184.552 349 185 348.552 185 348C185 347.448 184.552 347 184 347C183.448 347 183 347.448 183 348C183 348.552 183.448 349 184 349Z" fill="black"/>
<path d="M188 349C188.552 349 189 348.552 189 348C189 347.448 188.552 347 188 347C187.448 347 187 347.448 187 348C187 348.552 187.448 349 188 349Z" fill="black"/>
<path d="M192 349C192.552 349 193 348.552 193 348C193 347.448 192.552 347 192 347C191.448 347 191 347.448 191 348C191 348.552 191.448 349 192 349Z" fill="black"/>
<path d="M128 353C128.552 353 129 352.552 129 352C129 351.448 128.552 351 128 351C127.448 351 127 351.448 127 352C127 352.552 127.448 353 128 353Z" fill="black"/>
<path d="M132 353C132.552 353 133 352.552 133 352C133 351.448 132.552 351 132 351C131.448 351 131 351.448 131 352C131 352.552 131.448 353 132 353Z" fill="black"/>
<path d="M136 353C136.552 353 137 352.552 137 352C137 351.448 136.552 351 136 351C135.448 351 135 351.448 135 352C135 352.552 135.448 353 136 353Z" fill="black"/>
<path d="M140 353C140.552 353 141 352.552 141 352C141 351.448 140.552 351 140 351C139.448 351 139 351.448 139 352C139 352.552 139.448 353 140 353Z" fill="black"/>
<path d="M144 353C144.552 353 145 352.552 145 352C145 351.448 144.552 351 144 351C143.448 351 143 351.448 143 352C143 352.552 143.448 353 144 353Z" fill="black"/>
<path d="M148 353C148.552 353 149 352.552 149 352C149 351.448 148.552 351 148 351C147.448 351 147 351.448 147 352C147 352.552 147.448 353 148 353Z" fill="black"/>
<path d="M152 353C152.552 353 153 352.552 153 352C153 351.448 152.552 351 152 351C151.448 351 151 351.448 151 352C151 352.552 151.448 353 152 353Z" fill="black"/>
<path d="M156 353C156.552 353 157 352.552 157 352C157 351.448 156.552 351 156 351C155.448 351 155 351.448 155 352C155 352.552 155.448 353 156 353Z" fill="black"/>
<path d="M160 353C160.552 353 161 352.552 161 352C161 351.448 160.552 351 160 351C159.448 351 159 351.448 159 352C159 352.552 159.448 353 160 353Z" fill="black"/>
<path d="M164 353C164.552 353 165 352.552 165 352C165 351.448 164.552 351 164 351C163.448 351 163 351.448 163 352C163 352.552 163.448 353 164 353Z" fill="black"/>
<path d="M168 353C168.552 353 169 352.552 169 352C169 351.448 168.552 351 168 351C167.448 351 167 351.448 167 352C167 352.552 167.448 353 168 353Z" fill="black"/>
<path d="M172 353C172.552 353 173 352.552 173 352C173 351.448 172.552 351 172 351C171.448 351 171 351.448 171 352C171 352.552 171.448 353 172 353Z" fill="black"/>
<path d="M176 353C176.552 353 177 352.552 177 352C177 351.448 176.552 351 176 351C175.448 351 175 351.448 175 352C175 352.552 175.448 353 176 353Z" fill="black"/>
<path d="M180 353C180.552 353 181 352.552 181 352C181 351.448 180.552 351 180 351C179.448 351 179 351.448 179 352C179 352.552 179.448 353 180 353Z" fill="black"/>
<path d="M184 353C184.552 353 185 352.552 185 352C185 351.448 184.552 351 184 351C183.448 351 183 351.448 183 352C183 352.552 183.448 353 184 353Z" fill="black"/>
<path d="M188 353C188.552 353 189 352.552 189 352C189 351.448 188.552 351 188 351C187.448 351 187 351.448 187 352C187 352.552 187.448 353 188 353Z" fill="black"/>
<path d="M192 353C192.552 353 193 352.552 193 352C193 351.448 192.552 351 192 351C191.448 351 191 351.448 191 352C191 352.552 191.448 353 192 353Z" fill="black"/>
<path d="M128 357C128.552 357 129 356.552 129 356C129 355.448 128.552 355 128 355C127.448 355 127 355.448 127 356C127 356.552 127.448 357 128 357Z" fill="black"/>
<path d="M132 357C132.552 357 133 356.552 133 356C133 355.448 132.552 355 132 355C131.448 355 131 355.448 131 356C131 356.552 131.448 357 132 357Z" fill="black"/>
<path d="M136 357C136.552 357 137 356.552 137 356C137 355.448 136.552 355 136 355C135.448 355 135 355.448 135 356C135 356.552 135.448 357 136 357Z" fill="black"/>
<path d="M140 357C140.552 357 141 356.552 141 356C141 355.448 140.552 355 140 355C139.448 355 139 355.448 139 356C139 356.552 139.448 357 140 357Z" fill="black"/>
<path d="M144 357C144.552 357 145 356.552 145 356C145 355.448 144.552 355 144 355C143.448 355 143 355.448 143 356C143 356.552 143.448 357 144 357Z" fill="black"/>
<path d="M148 357C148.552 357 149 356.552 149 356C149 355.448 148.552 355 148 355C147.448 355 147 355.448 147 356C147 356.552 147.448 357 148 357Z" fill="black"/>
<path d="M152 357C152.552 357 153 356.552 153 356C153 355.448 152.552 355 152 355C151.448 355 151 355.448 151 356C151 356.552 151.448 357 152 357Z" fill="black"/>
<path d="M156 357C156.552 357 157 356.552 157 356C157 355.448 156.552 355 156 355C155.448 355 155 355.448 155 356C155 356.552 155.448 357 156 357Z" fill="black"/>
<path d="M160 357C160.552 357 161 356.552 161 356C161 355.448 160.552 355 160 355C159.448 355 159 355.448 159 356C159 356.552 159.448 357 160 357Z" fill="black"/>
<path d="M164 357C164.552 357 165 356.552 165 356C165 355.448 164.552 355 164 355C163.448 355 163 355.448 163 356C163 356.552 163.448 357 164 357Z" fill="black"/>
<path d="M168 357C168.552 357 169 356.552 169 356C169 355.448 168.552 355 168 355C167.448 355 167 355.448 167 356C167 356.552 167.448 357 168 357Z" fill="black"/>
<path d="M172 357C172.552 357 173 356.552 173 356C173 355.448 172.552 355 172 355C171.448 355 171 355.448 171 356C171 356.552 171.448 357 172 357Z" fill="black"/>
<path d="M176 357C176.552 357 177 356.552 177 356C177 355.448 176.552 355 176 355C175.448 355 175 355.448 175 356C175 356.552 175.448 357 176 357Z" fill="black"/>
<path d="M180 357C180.552 357 181 356.552 181 356C181 355.448 180.552 355 180 355C179.448 355 179 355.448 179 356C179 356.552 179.448 357 180 357Z" fill="black"/>
<path d="M184 357C184.552 357 185 356.552 185 356C185 355.448 184.552 355 184 355C183.448 355 183 355.448 183 356C183 356.552 183.448 357 184 357Z" fill="black"/>
<path d="M188 357C188.552 357 189 356.552 189 356C189 355.448 188.552 355 188 355C187.448 355 187 355.448 187 356C187 356.552 187.448 357 188 357Z" fill="black"/>
<path d="M192 357C192.552 357 193 356.552 193 356C193 355.448 192.552 355 192 355C191.448 355 191 355.448 191 356C191 356.552 191.448 357 192 357Z" fill="black"/>
<path d="M128 361C128.552 361 129 360.552 129 360C129 359.448 128.552 359 128 359C127.448 359 127 359.448 127 360C127 360.552 127.448 361 128 361Z" fill="black"/>
<path d="M132 361C132.552 361 133 360.552 133 360C133 359.448 132.552 359 132 359C131.448 359 131 359.448 131 360C131 360.552 131.448 361 132 361Z" fill="black"/>
<path d="M136 361C136.552 361 137 360.552 137 360C137 359.448 136.552 359 136 359C135.448 359 135 359.448 135 360C135 360.552 135.448 361 136 361Z" fill="black"/>
<path d="M140 361C140.552 361 141 360.552 141 360C141 359.448 140.552 359 140 359C139.448 359 139 359.448 139 360C139 360.552 139.448 361 140 361Z" fill="black"/>
<path d="M144 361C144.552 361 145 360.552 145 360C145 359.448 144.552 359 144 359C143.448 359 143 359.448 143 360C143 360.552 143.448 361 144 361Z" fill="black"/>
<path d="M148 361C148.552 361 149 360.552 149 360C149 359.448 148.552 359 148 359C147.448 359 147 359.448 147 360C147 360.552 147.448 361 148 361Z" fill="black"/>
<path d="M152 361C152.552 361 153 360.552 153 360C153 359.448 152.552 359 152 359C151.448 359 151 359.448 151 360C151 360.552 151.448 361 152 361Z" fill="black"/>
<path d="M156 361C156.552 361 157 360.552 157 360C157 359.448 156.552 359 156 359C155.448 359 155 359.448 155 360C155 360.552 155.448 361 156 361Z" fill="black"/>
<path d="M160 361C160.552 361 161 360.552 161 360C161 359.448 160.552 359 160 359C159.448 359 159 359.448 159 360C159 360.552 159.448 361 160 361Z" fill="black"/>
<path d="M164 361C164.552 361 165 360.552 165 360C165 359.448 164.552 359 164 359C163.448 359 163 359.448 163 360C163 360.552 163.448 361 164 361Z" fill="black"/>
<path d="M168 361C168.552 361 169 360.552 169 360C169 359.448 168.552 359 168 359C167.448 359 167 359.448 167 360C167 360.552 167.448 361 168 361Z" fill="black"/>
<path d="M172 361C172.552 361 173 360.552 173 360C173 359.448 172.552 359 172 359C171.448 359 171 359.448 171 360C171 360.552 171.448 361 172 361Z" fill="black"/>
<path d="M176 361C176.552 361 177 360.552 177 360C177 359.448 176.552 359 176 359C175.448 359 175 359.448 175 360C175 360.552 175.448 361 176 361Z" fill="black"/>
<path d="M180 361C180.552 361 181 360.552 181 360C181 359.448 180.552 359 180 359C179.448 359 179 359.448 179 360C179 360.552 179.448 361 180 361Z" fill="black"/>
<path d="M184 361C184.552 361 185 360.552 185 360C185 359.448 184.552 359 184 359C183.448 359 183 359.448 183 360C183 360.552 183.448 361 184 361Z" fill="black"/>
<path d="M188 361C188.552 361 189 360.552 189 360C189 359.448 188.552 359 188 359C187.448 359 187 359.448 187 360C187 360.552 187.448 361 188 361Z" fill="black"/>
<path d="M192 361C192.552 361 193 360.552 193 360C193 359.448 192.552 359 192 359C191.448 359 191 359.448 191 360C191 360.552 191.448 361 192 361Z" fill="black"/>
<path d="M128 365C128.552 365 129 364.552 129 364C129 363.448 128.552 363 128 363C127.448 363 127 363.448 127 364C127 364.552 127.448 365 128 365Z" fill="black"/>
<path d="M132 365C132.552 365 133 364.552 133 364C133 363.448 132.552 363 132 363C131.448 363 131 363.448 131 364C131 364.552 131.448 365 132 365Z" fill="black"/>
<path d="M136 365C136.552 365 137 364.552 137 364C137 363.448 136.552 363 136 363C135.448 363 135 363.448 135 364C135 364.552 135.448 365 136 365Z" fill="black"/>
<path d="M140 365C140.552 365 141 364.552 141 364C141 363.448 140.552 363 140 363C139.448 363 139 363.448 139 364C139 364.552 139.448 365 140 365Z" fill="black"/>
<path d="M144 365C144.552 365 145 364.552 145 364C145 363.448 144.552 363 144 363C143.448 363 143 363.448 143 364C143 364.552 143.448 365 144 365Z" fill="black"/>
<path d="M148 365C148.552 365 149 364.552 149 364C149 363.448 148.552 363 148 363C147.448 363 147 363.448 147 364C147 364.552 147.448 365 148 365Z" fill="black"/>
<path d="M152 365C152.552 365 153 364.552 153 364C153 363.448 152.552 363 152 363C151.448 363 151 363.448 151 364C151 364.552 151.448 365 152 365Z" fill="black"/>
<path d="M156 365C156.552 365 157 364.552 157 364C157 363.448 156.552 363 156 363C155.448 363 155 363.448 155 364C155 364.552 155.448 365 156 365Z" fill="black"/>
<path d="M160 365C160.552 365 161 364.552 161 364C161 363.448 160.552 363 160 363C159.448 363 159 363.448 159 364C159 364.552 159.448 365 160 365Z" fill="black"/>
<path d="M164 365C164.552 365 165 364.552 165 364C165 363.448 164.552 363 164 363C163.448 363 163 363.448 163 364C163 364.552 163.448 365 164 365Z" fill="black"/>
<path d="M168 365C168.552 365 169 364.552 169 364C169 363.448 168.552 363 168 363C167.448 363 167 363.448 167 364C167 364.552 167.448 365 168 365Z" fill="black"/>
<path d="M172 365C172.552 365 173 364.552 173 364C173 363.448 172.552 363 172 363C171.448 363 171 363.448 171 364C171 364.552 171.448 365 172 365Z" fill="black"/>
<path d="M176 365C176.552 365 177 364.552 177 364C177 363.448 176.552 363 176 363C175.448 363 175 363.448 175 364C175 364.552 175.448 365 176 365Z" fill="black"/>
<path d="M180 365C180.552 365 181 364.552 181 364C181 363.448 180.552 363 180 363C179.448 363 179 363.448 179 364C179 364.552 179.448 365 180 365Z" fill="black"/>
<path d="M184 365C184.552 365 185 364.552 185 364C185 363.448 184.552 363 184 363C183.448 363 183 363.448 183 364C183 364.552 183.448 365 184 365Z" fill="black"/>
<path d="M188 365C188.552 365 189 364.552 189 364C189 363.448 188.552 363 188 363C187.448 363 187 363.448 187 364C187 364.552 187.448 365 188 365Z" fill="black"/>
<path d="M192 365C192.552 365 193 364.552 193 364C193 363.448 192.552 363 192 363C191.448 363 191 363.448 191 364C191 364.552 191.448 365 192 365Z" fill="black"/>
<path d="M128 369C128.552 369 129 368.552 129 368C129 367.448 128.552 367 128 367C127.448 367 127 367.448 127 368C127 368.552 127.448 369 128 369Z" fill="black"/>
<path d="M132 369C132.552 369 133 368.552 133 368C133 367.448 132.552 367 132 367C131.448 367 131 367.448 131 368C131 368.552 131.448 369 132 369Z" fill="black"/>
<path d="M136 369C136.552 369 137 368.552 137 368C137 367.448 136.552 367 136 367C135.448 367 135 367.448 135 368C135 368.552 135.448 369 136 369Z" fill="black"/>
<path d="M140 369C140.552 369 141 368.552 141 368C141 367.448 140.552 367 140 367C139.448 367 139 367.448 139 368C139 368.552 139.448 369 140 369Z" fill="black"/>
<path d="M144 369C144.552 369 145 368.552 145 368C145 367.448 144.552 367 144 367C143.448 367 143 367.448 143 368C143 368.552 143.448 369 144 369Z" fill="black"/>
<path d="M148 369C148.552 369 149 368.552 149 368C149 367.448 148.552 367 148 367C147.448 367 147 367.448 147 368C147 368.552 147.448 369 148 369Z" fill="black"/>
<path d="M152 369C152.552 369 153 368.552 153 368C153 367.448 152.552 367 152 367C151.448 367 151 367.448 151 368C151 368.552 151.448 369 152 369Z" fill="black"/>
<path d="M156 369C156.552 369 157 368.552 157 368C157 367.448 156.552 367 156 367C155.448 367 155 367.448 155 368C155 368.552 155.448 369 156 369Z" fill="black"/>
<path d="M160 369C160.552 369 161 368.552 161 368C161 367.448 160.552 367 160 367C159.448 367 159 367.448 159 368C159 368.552 159.448 369 160 369Z" fill="black"/>
<path d="M164 369C164.552 369 165 368.552 165 368C165 367.448 164.552 367 164 367C163.448 367 163 367.448 163 368C163 368.552 163.448 369 164 369Z" fill="black"/>
<path d="M168 369C168.552 369 169 368.552 169 368C169 367.448 168.552 367 168 367C167.448 367 167 367.448 167 368C167 368.552 167.448 369 168 369Z" fill="black"/>
<path d="M172 369C172.552 369 173 368.552 173 368C173 367.448 172.552 367 172 367C171.448 367 171 367.448 171 368C171 368.552 171.448 369 172 369Z" fill="black"/>
<path d="M176 369C176.552 369 177 368.552 177 368C177 367.448 176.552 367 176 367C175.448 367 175 367.448 175 368C175 368.552 175.448 369 176 369Z" fill="black"/>
<path d="M180 369C180.552 369 181 368.552 181 368C181 367.448 180.552 367 180 367C179.448 367 179 367.448 179 368C179 368.552 179.448 369 180 369Z" fill="black"/>
<path d="M184 369C184.552 369 185 368.552 185 368C185 367.448 184.552 367 184 367C183.448 367 183 367.448 183 368C183 368.552 183.448 369 184 369Z" fill="black"/>
<path d="M188 369C188.552 369 189 368.552 189 368C189 367.448 188.552 367 188 367C187.448 367 187 367.448 187 368C187 368.552 187.448 369 188 369Z" fill="black"/>
<path d="M192 369C192.552 369 193 368.552 193 368C193 367.448 192.552 367 192 367C191.448 367 191 367.448 191 368C191 368.552 191.448 369 192 369Z" fill="black"/>
<path d="M128 373C128.552 373 129 372.552 129 372C129 371.448 128.552 371 128 371C127.448 371 127 371.448 127 372C127 372.552 127.448 373 128 373Z" fill="black"/>
<path d="M132 373C132.552 373 133 372.552 133 372C133 371.448 132.552 371 132 371C131.448 371 131 371.448 131 372C131 372.552 131.448 373 132 373Z" fill="black"/>
<path d="M136 373C136.552 373 137 372.552 137 372C137 371.448 136.552 371 136 371C135.448 371 135 371.448 135 372C135 372.552 135.448 373 136 373Z" fill="black"/>
<path d="M140 373C140.552 373 141 372.552 141 372C141 371.448 140.552 371 140 371C139.448 371 139 371.448 139 372C139 372.552 139.448 373 140 373Z" fill="black"/>
<path d="M144 373C144.552 373 145 372.552 145 372C145 371.448 144.552 371 144 371C143.448 371 143 371.448 143 372C143 372.552 143.448 373 144 373Z" fill="black"/>
<path d="M148 373C148.552 373 149 372.552 149 372C149 371.448 148.552 371 148 371C147.448 371 147 371.448 147 372C147 372.552 147.448 373 148 373Z" fill="black"/>
<path d="M152 373C152.552 373 153 372.552 153 372C153 371.448 152.552 371 152 371C151.448 371 151 371.448 151 372C151 372.552 151.448 373 152 373Z" fill="black"/>
<path d="M156 373C156.552 373 157 372.552 157 372C157 371.448 156.552 371 156 371C155.448 371 155 371.448 155 372C155 372.552 155.448 373 156 373Z" fill="black"/>
<path d="M160 373C160.552 373 161 372.552 161 372C161 371.448 160.552 371 160 371C159.448 371 159 371.448 159 372C159 372.552 159.448 373 160 373Z" fill="black"/>
<path d="M164 373C164.552 373 165 372.552 165 372C165 371.448 164.552 371 164 371C163.448 371 163 371.448 163 372C163 372.552 163.448 373 164 373Z" fill="black"/>
<path d="M168 373C168.552 373 169 372.552 169 372C169 371.448 168.552 371 168 371C167.448 371 167 371.448 167 372C167 372.552 167.448 373 168 373Z" fill="black"/>
<path d="M172 373C172.552 373 173 372.552 173 372C173 371.448 172.552 371 172 371C171.448 371 171 371.448 171 372C171 372.552 171.448 373 172 373Z" fill="black"/>
<path d="M176 373C176.552 373 177 372.552 177 372C177 371.448 176.552 371 176 371C175.448 371 175 371.448 175 372C175 372.552 175.448 373 176 373Z" fill="black"/>
<path d="M180 373C180.552 373 181 372.552 181 372C181 371.448 180.552 371 180 371C179.448 371 179 371.448 179 372C179 372.552 179.448 373 180 373Z" fill="black"/>
<path d="M184 373C184.552 373 185 372.552 185 372C185 371.448 184.552 371 184 371C183.448 371 183 371.448 183 372C183 372.552 183.448 373 184 373Z" fill="black"/>
<path d="M188 373C188.552 373 189 372.552 189 372C189 371.448 188.552 371 188 371C187.448 371 187 371.448 187 372C187 372.552 187.448 373 188 373Z" fill="black"/>
<path d="M192 373C192.552 373 193 372.552 193 372C193 371.448 192.552 371 192 371C191.448 371 191 371.448 191 372C191 372.552 191.448 373 192 373Z" fill="black"/>
<path d="M128 377C128.552 377 129 376.552 129 376C129 375.448 128.552 375 128 375C127.448 375 127 375.448 127 376C127 376.552 127.448 377 128 377Z" fill="black"/>
<path d="M132 377C132.552 377 133 376.552 133 376C133 375.448 132.552 375 132 375C131.448 375 131 375.448 131 376C131 376.552 131.448 377 132 377Z" fill="black"/>
<path d="M136 377C136.552 377 137 376.552 137 376C137 375.448 136.552 375 136 375C135.448 375 135 375.448 135 376C135 376.552 135.448 377 136 377Z" fill="black"/>
<path d="M140 377C140.552 377 141 376.552 141 376C141 375.448 140.552 375 140 375C139.448 375 139 375.448 139 376C139 376.552 139.448 377 140 377Z" fill="black"/>
<path d="M144 377C144.552 377 145 376.552 145 376C145 375.448 144.552 375 144 375C143.448 375 143 375.448 143 376C143 376.552 143.448 377 144 377Z" fill="black"/>
<path d="M148 377C148.552 377 149 376.552 149 376C149 375.448 148.552 375 148 375C147.448 375 147 375.448 147 376C147 376.552 147.448 377 148 377Z" fill="black"/>
<path d="M152 377C152.552 377 153 376.552 153 376C153 375.448 152.552 375 152 375C151.448 375 151 375.448 151 376C151 376.552 151.448 377 152 377Z" fill="black"/>
<path d="M156 377C156.552 377 157 376.552 157 376C157 375.448 156.552 375 156 375C155.448 375 155 375.448 155 376C155 376.552 155.448 377 156 377Z" fill="black"/>
<path d="M160 377C160.552 377 161 376.552 161 376C161 375.448 160.552 375 160 375C159.448 375 159 375.448 159 376C159 376.552 159.448 377 160 377Z" fill="black"/>
<path d="M164 377C164.552 377 165 376.552 165 376C165 375.448 164.552 375 164 375C163.448 375 163 375.448 163 376C163 376.552 163.448 377 164 377Z" fill="black"/>
<path d="M168 377C168.552 377 169 376.552 169 376C169 375.448 168.552 375 168 375C167.448 375 167 375.448 167 376C167 376.552 167.448 377 168 377Z" fill="black"/>
<path d="M172 377C172.552 377 173 376.552 173 376C173 375.448 172.552 375 172 375C171.448 375 171 375.448 171 376C171 376.552 171.448 377 172 377Z" fill="black"/>
<path d="M176 377C176.552 377 177 376.552 177 376C177 375.448 176.552 375 176 375C175.448 375 175 375.448 175 376C175 376.552 175.448 377 176 377Z" fill="black"/>
<path d="M180 377C180.552 377 181 376.552 181 376C181 375.448 180.552 375 180 375C179.448 375 179 375.448 179 376C179 376.552 179.448 377 180 377Z" fill="black"/>
<path d="M184 377C184.552 377 185 376.552 185 376C185 375.448 184.552 375 184 375C183.448 375 183 375.448 183 376C183 376.552 183.448 377 184 377Z" fill="black"/>
<path d="M188 377C188.552 377 189 376.552 189 376C189 375.448 188.552 375 188 375C187.448 375 187 375.448 187 376C187 376.552 187.448 377 188 377Z" fill="black"/>
<path d="M192 377C192.552 377 193 376.552 193 376C193 375.448 192.552 375 192 375C191.448 375 191 375.448 191 376C191 376.552 191.448 377 192 377Z" fill="black"/>
<path d="M128 381C128.552 381 129 380.552 129 380C129 379.448 128.552 379 128 379C127.448 379 127 379.448 127 380C127 380.552 127.448 381 128 381Z" fill="black"/>
<path d="M132 381C132.552 381 133 380.552 133 380C133 379.448 132.552 379 132 379C131.448 379 131 379.448 131 380C131 380.552 131.448 381 132 381Z" fill="black"/>
<path d="M136 381C136.552 381 137 380.552 137 380C137 379.448 136.552 379 136 379C135.448 379 135 379.448 135 380C135 380.552 135.448 381 136 381Z" fill="black"/>
<path d="M140 381C140.552 381 141 380.552 141 380C141 379.448 140.552 379 140 379C139.448 379 139 379.448 139 380C139 380.552 139.448 381 140 381Z" fill="black"/>
<path d="M144 381C144.552 381 145 380.552 145 380C145 379.448 144.552 379 144 379C143.448 379 143 379.448 143 380C143 380.552 143.448 381 144 381Z" fill="black"/>
<path d="M148 381C148.552 381 149 380.552 149 380C149 379.448 148.552 379 148 379C147.448 379 147 379.448 147 380C147 380.552 147.448 381 148 381Z" fill="black"/>
<path d="M152 381C152.552 381 153 380.552 153 380C153 379.448 152.552 379 152 379C151.448 379 151 379.448 151 380C151 380.552 151.448 381 152 381Z" fill="black"/>
<path d="M156 381C156.552 381 157 380.552 157 380C157 379.448 156.552 379 156 379C155.448 379 155 379.448 155 380C155 380.552 155.448 381 156 381Z" fill="black"/>
<path d="M160 381C160.552 381 161 380.552 161 380C161 379.448 160.552 379 160 379C159.448 379 159 379.448 159 380C159 380.552 159.448 381 160 381Z" fill="black"/>
<path d="M164 381C164.552 381 165 380.552 165 380C165 379.448 164.552 379 164 379C163.448 379 163 379.448 163 380C163 380.552 163.448 381 164 381Z" fill="black"/>
<path d="M168 381C168.552 381 169 380.552 169 380C169 379.448 168.552 379 168 379C167.448 379 167 379.448 167 380C167 380.552 167.448 381 168 381Z" fill="black"/>
<path d="M172 381C172.552 381 173 380.552 173 380C173 379.448 172.552 379 172 379C171.448 379 171 379.448 171 380C171 380.552 171.448 381 172 381Z" fill="black"/>
<path d="M176 381C176.552 381 177 380.552 177 380C177 379.448 176.552 379 176 379C175.448 379 175 379.448 175 380C175 380.552 175.448 381 176 381Z" fill="black"/>
<path d="M180 381C180.552 381 181 380.552 181 380C181 379.448 180.552 379 180 379C179.448 379 179 379.448 179 380C179 380.552 179.448 381 180 381Z" fill="black"/>
<path d="M184 381C184.552 381 185 380.552 185 380C185 379.448 184.552 379 184 379C183.448 379 183 379.448 183 380C183 380.552 183.448 381 184 381Z" fill="black"/>
<path d="M188 381C188.552 381 189 380.552 189 380C189 379.448 188.552 379 188 379C187.448 379 187 379.448 187 380C187 380.552 187.448 381 188 381Z" fill="black"/>
<path d="M192 381C192.552 381 193 380.552 193 380C193 379.448 192.552 379 192 379C191.448 379 191 379.448 191 380C191 380.552 191.448 381 192 381Z" fill="black"/>
<path d="M128 385C128.552 385 129 384.552 129 384C129 383.448 128.552 383 128 383C127.448 383 127 383.448 127 384C127 384.552 127.448 385 128 385Z" fill="black"/>
<path d="M132 385C132.552 385 133 384.552 133 384C133 383.448 132.552 383 132 383C131.448 383 131 383.448 131 384C131 384.552 131.448 385 132 385Z" fill="black"/>
<path d="M136 385C136.552 385 137 384.552 137 384C137 383.448 136.552 383 136 383C135.448 383 135 383.448 135 384C135 384.552 135.448 385 136 385Z" fill="black"/>
<path d="M140 385C140.552 385 141 384.552 141 384C141 383.448 140.552 383 140 383C139.448 383 139 383.448 139 384C139 384.552 139.448 385 140 385Z" fill="black"/>
<path d="M144 385C144.552 385 145 384.552 145 384C145 383.448 144.552 383 144 383C143.448 383 143 383.448 143 384C143 384.552 143.448 385 144 385Z" fill="black"/>
<path d="M148 385C148.552 385 149 384.552 149 384C149 383.448 148.552 383 148 383C147.448 383 147 383.448 147 384C147 384.552 147.448 385 148 385Z" fill="black"/>
<path d="M152 385C152.552 385 153 384.552 153 384C153 383.448 152.552 383 152 383C151.448 383 151 383.448 151 384C151 384.552 151.448 385 152 385Z" fill="black"/>
<path d="M156 385C156.552 385 157 384.552 157 384C157 383.448 156.552 383 156 383C155.448 383 155 383.448 155 384C155 384.552 155.448 385 156 385Z" fill="black"/>
<path d="M160 385C160.552 385 161 384.552 161 384C161 383.448 160.552 383 160 383C159.448 383 159 383.448 159 384C159 384.552 159.448 385 160 385Z" fill="black"/>
<path d="M164 385C164.552 385 165 384.552 165 384C165 383.448 164.552 383 164 383C163.448 383 163 383.448 163 384C163 384.552 163.448 385 164 385Z" fill="black"/>
<path d="M168 385C168.552 385 169 384.552 169 384C169 383.448 168.552 383 168 383C167.448 383 167 383.448 167 384C167 384.552 167.448 385 168 385Z" fill="black"/>
<path d="M172 385C172.552 385 173 384.552 173 384C173 383.448 172.552 383 172 383C171.448 383 171 383.448 171 384C171 384.552 171.448 385 172 385Z" fill="black"/>
<path d="M176 385C176.552 385 177 384.552 177 384C177 383.448 176.552 383 176 383C175.448 383 175 383.448 175 384C175 384.552 175.448 385 176 385Z" fill="black"/>
<path d="M180 385C180.552 385 181 384.552 181 384C181 383.448 180.552 383 180 383C179.448 383 179 383.448 179 384C179 384.552 179.448 385 180 385Z" fill="black"/>
<path d="M184 385C184.552 385 185 384.552 185 384C185 383.448 184.552 383 184 383C183.448 383 183 383.448 183 384C183 384.552 183.448 385 184 385Z" fill="black"/>
<path d="M188 385C188.552 385 189 384.552 189 384C189 383.448 188.552 383 188 383C187.448 383 187 383.448 187 384C187 384.552 187.448 385 188 385Z" fill="black"/>
<path d="M192 385C192.552 385 193 384.552 193 384C193 383.448 192.552 383 192 383C191.448 383 191 383.448 191 384C191 384.552 191.448 385 192 385Z" fill="black"/>
</g></svg>
